<svg width="24" height="24" viewBox="0 0 24 24" fill="none" xmlns="http://www.w3.org/2000/svg">
<path d="M7.88368 18.2171C8.6301 18.2171 9.24162 18.8416 9.24162 19.6131C9.24162 20.3754 8.6301 21 7.88368 21C7.12827 21 6.51675 20.3754 6.51675 19.6131C6.51675 18.8416 7.12827 18.2171 7.88368 18.2171ZM18.0008 18.2171C18.7472 18.2171 19.3587 18.8416 19.3587 19.6131C19.3587 20.3754 18.7472 21 18.0008 21C17.2454 21 16.6339 20.3754 16.6339 19.6131C16.6339 18.8416 17.2454 18.2171 18.0008 18.2171ZM3.79205 3.00786L5.93688 3.33759C6.24264 3.39362 6.46747 3.64987 6.49444 3.96214L6.66531 6.01949C6.69229 6.31431 6.92611 6.53474 7.21388 6.53474H19.3589C19.9075 6.53474 20.2672 6.72762 20.6269 7.15011C20.9866 7.5726 21.0496 8.17878 20.9687 8.72894L20.1143 14.754C19.9525 15.9122 18.9812 16.7654 17.8391 16.7654H8.02775C6.83168 16.7654 5.84245 15.8295 5.74353 14.6172L4.91617 4.60506L3.55823 4.36626C3.19851 4.30197 2.94671 3.94377 3.00966 3.57639C3.07261 3.20074 3.42334 2.95184 3.79205 3.00786ZM16.5 8.85H11.1998C10.8221 8.85 10.5253 9.15309 10.5253 9.53884C10.5253 9.91541 10.8221 10.2277 11.1998 10.2277H16.5C16.8777 10.2277 17.1745 9.91541 17.1745 9.53884C17.1745 9.15309 16.8777 8.85 16.5 8.85Z" fill="white"/>
</svg>
