<svg width="165" height="151" viewBox="0 0 165 151" fill="none" xmlns="http://www.w3.org/2000/svg">
<path d="M165 94.9388V134C165 142.837 157.837 150 149 150H34.2796C34.0945 147.858 34 145.69 34 143.5C34 102.355 67.3548 69 108.5 69C131.093 69 151.337 79.0571 165 94.9388Z" fill="#F4FFF8"/>
<path d="M26.5 30C26.5 31.7069 25.9118 34.1897 24 34.6552C24.6373 34.9138 26.5 35.7724 26.5 39C26.5 35.7724 28.3627 34.9138 29 34.6552C27.0882 34.1897 26.5 31.7069 26.5 30Z" fill="#F6CC33"/>
<path d="M130 65C130 68.4138 128.824 73.3793 125 74.3103C126.275 74.8276 130 76.5448 130 83C130 76.5448 133.725 74.8276 135 74.3103C131.176 73.3793 130 68.4138 130 65Z" fill="#F6CC33" fill-opacity="0.6"/>
<circle cx="24.5" cy="94.5" r="6.5" fill="#FFEDAD"/>
<rect y="110" width="12" height="41" fill="#24A3F9"/>
<path d="M141 119L129 110H12V151H141V119Z" fill="#7CC7FA"/>
<path d="M0 110H129L141 119H12L0 110Z" fill="#4CB1F5"/>
<path d="M27 112H110L114 116H31L27 112Z" fill="#149AF4"/>
<path d="M33 144C33 136.82 38.8203 131 46 131H106C113.18 131 119 136.82 119 144V151H33V144Z" fill="#9ED4F9"/>
<path d="M113.249 65.2975C106.6 87.2555 85.1571 100.195 65.3557 94.1983C45.5543 88.2018 34.8927 65.5402 41.5423 43.5822C48.1918 21.6243 57.8422 5.11381 89.436 14.6814C109.237 20.6779 119.899 43.3395 113.249 65.2975Z" fill="#F7CC33"/>
<path d="M106.504 63.255C99.8549 85.213 78.4121 98.1524 58.6107 92.1559C38.8093 86.1594 28.1477 63.4978 34.7973 41.5398C41.4468 19.5818 62.8896 6.64247 82.691 12.639C102.492 18.6355 113.154 41.2971 106.504 63.255Z" fill="#FFEDAD"/>
<path d="M97.9838 60.6748C92.8779 77.5354 76.5009 87.4977 61.4048 82.9261C46.3086 78.3545 38.21 60.9802 43.3159 44.1197C48.4219 27.2591 64.7989 17.2968 79.895 21.8684C94.9911 26.44 103.09 43.8142 97.9838 60.6748Z" fill="#DBAF12"/>
<path d="M98.0395 60.4985C93.2601 76.2808 77.9425 85.6095 63.8266 81.3348C49.7108 77.0601 42.1421 60.8006 46.9215 45.0183C51.7009 29.236 67.0185 19.9073 81.1343 24.182C95.2502 28.4567 102.819 44.7162 98.0395 60.4985Z" fill="#F7CC33"/>
<path d="M86.0038 62.7736C85.7593 64.4783 85.0863 66.0213 83.9848 67.4024C82.9208 68.7554 81.4659 69.8014 79.6201 70.5404C77.8117 71.2514 75.7484 71.5242 73.43 71.359L72.8586 75.3422L69.7114 74.8908L70.2897 70.8584C67.0537 70.0931 64.5556 68.731 62.7956 66.7722C61.0403 64.7806 60.3368 62.3376 60.685 59.4432L68.0614 60.5012C67.9195 62.8898 68.928 64.4899 71.0868 65.3015L72.434 55.9088C70.1582 54.9801 68.3413 54.1173 66.9835 53.3203C65.6256 52.5233 64.5162 51.3938 63.6552 49.932C62.7942 48.4702 62.5259 46.6082 62.8504 44.3461C63.2595 41.4939 64.6097 39.312 66.9009 37.8004C69.2249 36.2935 72.0286 35.6417 75.3118 35.845L75.8831 31.8617L79.0304 32.3131L78.4591 36.2964C81.5687 37.0101 83.9403 38.3205 85.5739 40.2278C87.2403 42.1397 87.9813 44.5546 87.797 47.4725L80.3714 46.4075C80.4094 45.4426 80.1827 44.5737 79.6914 43.8005C79.2375 42.9994 78.5563 42.3831 77.6479 41.9516L76.3148 51.2459C78.6843 52.2215 80.5316 53.1054 81.8566 53.8977C83.2192 54.662 84.331 55.775 85.192 57.2368C86.0577 58.6659 86.3283 60.5115 86.0038 62.7736ZM70.0795 45.0317C69.9243 46.1135 70.1252 47.0457 70.6821 47.8282C71.2438 48.578 72.1169 49.2553 73.3016 49.8602L74.5218 41.3527C73.3181 41.3473 72.3202 41.6559 71.5283 42.2784C70.7364 42.9009 70.2535 43.8187 70.0795 45.0317ZM74.22 65.8512C75.4987 65.8004 76.5387 65.431 77.34 64.7429C78.1741 64.0596 78.6711 63.1605 78.831 62.0459C78.9862 60.964 78.7665 60.0459 78.1721 59.2914C77.5777 58.537 76.6718 57.855 75.4543 57.2454L74.22 65.8512Z" fill="#DBAF12"/>
<path d="M82.7945 62.3132C82.55 64.018 81.877 65.561 80.7755 66.9421C79.7115 68.2951 78.2566 69.3411 76.4107 70.0801C74.6024 70.791 72.539 71.0639 70.2206 70.8986L69.6493 74.8819L66.502 74.4305L67.0804 70.398C63.8443 69.6327 61.3463 68.2707 59.5862 66.3119C57.8309 64.3202 57.1274 61.8772 57.4756 58.9828L64.8521 60.0408C64.7102 62.4295 65.7187 64.0296 67.8774 64.8411L69.2246 55.4485C66.9488 54.5198 65.132 53.657 63.7741 52.86C62.4163 52.0629 61.3069 50.9335 60.4459 49.4717C59.5849 48.0098 59.3166 46.1479 59.641 43.8858C60.0501 41.0335 61.4003 38.8517 63.6915 37.3401C66.0156 35.8332 68.8192 35.1814 72.1024 35.3846L72.6738 31.4014L75.821 31.8528L75.2497 35.8361C78.3594 36.5497 80.731 37.8602 82.3646 39.7674C84.0309 41.6794 84.772 44.0943 84.5876 47.0122L77.162 45.9472C77.2001 44.9823 76.9734 44.1133 76.482 43.3402C76.0281 42.539 75.347 41.9227 74.4386 41.4913L73.1055 50.7856C75.4749 51.7612 77.3222 52.6451 78.6473 53.4374C80.0098 54.2016 81.1216 55.3147 81.9826 56.7765C82.8483 58.2056 83.1189 60.0511 82.7945 62.3132ZM66.8701 44.5713C66.715 45.6532 66.9158 46.5854 67.4728 47.3679C68.0344 48.1176 68.9076 48.7949 70.0922 49.3998L71.3125 40.8924C70.1087 40.887 69.1109 41.1956 68.319 41.8181C67.5271 42.4406 67.0441 43.3583 66.8701 44.5713ZM71.0106 65.3909C72.2893 65.3401 73.3293 64.9707 74.1306 64.2826C74.9648 63.5992 75.4617 62.7002 75.6216 61.5856C75.7768 60.5037 75.5572 59.5855 74.9628 58.8311C74.3683 58.0767 73.4624 57.3947 72.245 56.7851L71.0106 65.3909Z" fill="#FFEDAD"/>
</svg>
