<svg width="21" height="21" viewBox="0 0 21 21" fill="none" xmlns="http://www.w3.org/2000/svg">
<path d="M11.4294 0.384287C11.1829 0.138228 10.8486 0 10.5 0C10.1514 0 9.81714 0.138228 9.57063 0.384287L0.369001 9.57191C0.129551 9.81945 -0.00294533 10.151 4.96923e-05 10.4951C0.00304472 10.8393 0.141291 11.1685 0.385014 11.4118C0.628736 11.6552 0.958434 11.7932 1.3031 11.7962C1.64776 11.7992 1.97981 11.6669 2.22773 11.4278L2.61289 11.0432V19.6875C2.61289 20.0356 2.75138 20.3694 2.9979 20.6156C3.24442 20.8617 3.57877 21 3.9274 21H6.55644C6.90507 21 7.23943 20.8617 7.48595 20.6156C7.73247 20.3694 7.87096 20.0356 7.87096 19.6875V17.0624C7.87096 16.7143 8.00946 16.3805 8.25598 16.1344C8.5025 15.8882 8.83685 15.7499 9.18548 15.7499H11.8145C12.1632 15.7499 12.4975 15.8882 12.744 16.1344C12.9905 16.3805 13.129 16.7143 13.129 17.0624V19.6875C13.129 20.0356 13.2675 20.3694 13.5141 20.6156C13.7606 20.8617 14.0949 21 14.4436 21H17.0726C17.4212 21 17.7556 20.8617 18.0021 20.6156C18.2486 20.3694 18.3871 20.0356 18.3871 19.6875V11.0432L18.7723 11.4278C19.0202 11.6669 19.3522 11.7992 19.6969 11.7962C20.0416 11.7932 20.3713 11.6552 20.615 11.4118C20.8587 11.1685 20.997 10.8393 21 10.4951C21.0029 10.151 20.8704 9.81945 20.631 9.57191L11.4294 0.384287V0.384287Z" fill="white"/>
</svg>
