<svg width="16" height="16" viewBox="0 0 16 16" fill="none" xmlns="http://www.w3.org/2000/svg">
<path d="M14.2903 1.72136C13.9568 1.37911 13.4633 1.2516 13.0031 1.38582L2.27204 4.50639C1.78651 4.64128 1.44237 5.0285 1.34966 5.52041C1.25496 6.02104 1.58576 6.65657 2.01793 6.92232L5.37331 8.98458C5.71745 9.19597 6.16163 9.14296 6.44641 8.85573L10.2887 4.98958C10.4821 4.78825 10.8022 4.78825 10.9956 4.98958C11.189 5.18419 11.189 5.4996 10.9956 5.70093L7.1467 9.56776C6.86125 9.85431 6.8079 10.3006 7.01798 10.6469L9.06815 14.0359C9.30825 14.4385 9.72176 14.6667 10.1753 14.6667C10.2286 14.6667 10.2887 14.6667 10.342 14.66C10.8622 14.5929 11.2757 14.2372 11.4291 13.7339L14.6104 3.01657C14.7505 2.56023 14.6238 2.06362 14.2903 1.72136Z" fill="white"/>
</svg>
