<svg width="14" height="14" viewBox="0 0 14 14" fill="none" xmlns="http://www.w3.org/2000/svg">
<path fill-rule="evenodd" clip-rule="evenodd" d="M7 14C10.866 14 14 10.866 14 7C14 3.13401 10.866 0 7 0C3.13401 0 0 3.13401 0 7C0 10.866 3.13401 14 7 14ZM8.08236 4.08333C8.08236 3.439 7.56002 2.91667 6.91569 2.91667C6.27136 2.91667 5.74902 3.439 5.74902 4.08333V5.83333H3.99902C3.35469 5.83333 2.83236 6.35567 2.83236 7C2.83236 7.64433 3.35469 8.16667 3.99902 8.16667H5.74902V9.91667C5.74902 10.561 6.27136 11.0833 6.91569 11.0833C7.56002 11.0833 8.08236 10.561 8.08236 9.91667V8.16667H9.83236C10.4767 8.16667 10.999 7.64433 10.999 7C10.999 6.35567 10.4767 5.83333 9.83236 5.83333H8.08236V4.08333Z" fill="white"/>
</svg>
