<svg width="20" height="12" viewBox="0 0 20 12" fill="none" xmlns="http://www.w3.org/2000/svg">
<path fill-rule="evenodd" clip-rule="evenodd" d="M0.535061 1.7495L0.400391 1.8V10.2L0.535061 10.1495C3.53657 9.02393 6.85025 9.05995 9.8266 10.2505C12.6507 11.3801 15.7838 11.4722 18.6694 10.5103L19.6004 10.2V1.8L18.6694 2.11034C15.7838 3.0722 12.6507 2.98013 9.8266 1.85049C6.85025 0.659949 3.53657 0.623934 0.535061 1.7495ZM10 8C11.1046 8 12 7.10457 12 6C12 4.89543 11.1046 4 10 4C8.89543 4 8 4.89543 8 6C8 7.10457 8.89543 8 10 8Z" fill="#F7CC33"/>
</svg>
