<svg width="24" height="24" viewBox="0 0 24 24" fill="none" xmlns="http://www.w3.org/2000/svg">
<path fill-rule="evenodd" clip-rule="evenodd" d="M4.33224 7.94948C4.33224 4.7148 7.34199 1.20508 11.8181 1.20508C16.2942 1.20508 19.304 4.7148 19.304 7.94948C19.304 8.77933 19.4096 9.36041 19.5538 9.80724C19.6984 10.2555 19.8911 10.5999 20.1132 10.9716C20.1359 11.0096 20.1592 11.0483 20.1829 11.0877C20.3855 11.4244 20.6207 11.8151 20.8001 12.2848C21.0071 12.8265 21.1362 13.4549 21.1362 14.2711C21.1362 14.2929 21.1353 14.3147 21.1334 14.3364C21.0602 15.1804 20.8094 15.921 20.3323 16.5381C19.8573 17.1525 19.2012 17.5886 18.41 17.8984C16.8642 18.5038 14.6558 18.6804 11.8181 18.6804C8.98169 18.6804 6.77341 18.5067 5.22756 17.9028C4.43616 17.5936 3.77966 17.1579 3.30432 16.5426C2.827 15.9247 2.57627 15.1827 2.50283 14.3364C2.50094 14.3147 2.5 14.2929 2.5 14.2711C2.5 13.4549 2.62907 12.8265 2.83607 12.2848C3.01556 11.8151 3.25072 11.4244 3.4533 11.0878C3.47705 11.0483 3.50035 11.0096 3.52306 10.9716C3.7451 10.5999 3.93783 10.2555 4.08245 9.80724C4.22662 9.36041 4.33224 8.77933 4.33224 7.94948ZM11.8181 2.71612C8.1442 2.71612 5.84328 5.58128 5.84328 7.94948C5.84328 8.91288 5.71988 9.65324 5.5205 10.2712C5.32158 10.8878 5.05624 11.3515 4.82023 11.7466C4.79688 11.7856 4.77403 11.8237 4.75168 11.861C4.54268 12.2095 4.37674 12.4862 4.24755 12.8242C4.11335 13.1754 4.01449 13.6105 4.01113 14.238C4.06822 14.8431 4.2401 15.2822 4.5001 15.6188C4.76668 15.9639 5.16995 16.258 5.77738 16.4953C7.02918 16.9843 8.97478 17.1694 11.8181 17.1694C14.6611 17.1694 16.6072 16.9817 17.859 16.4914C18.4667 16.2534 18.8702 15.9588 19.1368 15.6139C19.3968 15.2777 19.5683 14.8399 19.6251 14.238C19.6217 13.6105 19.5229 13.1754 19.3887 12.8242C19.2595 12.4862 19.0935 12.2095 18.8845 11.861C18.8622 11.8237 18.8393 11.7856 18.816 11.7466C18.58 11.3515 18.3146 10.8878 18.1157 10.2712C17.9163 9.65324 17.7929 8.91288 17.7929 7.94948C17.7929 5.58128 15.492 2.71612 11.8181 2.71612Z" fill="white"/>
<path fill-rule="evenodd" clip-rule="evenodd" d="M8.8144 20.3947C9.12478 20.1158 9.60247 20.1414 9.88135 20.4517C10.9656 21.6584 12.5861 21.647 13.6631 20.4511C13.9424 20.141 14.4201 20.1161 14.7302 20.3953C15.0402 20.6745 15.0652 21.1522 14.786 21.4623C13.1146 23.3181 10.4478 23.343 8.75739 21.4617C8.47851 21.1513 8.50403 20.6736 8.8144 20.3947Z" fill="white"/>
<path d="M23 4.57987C23 6.63839 21.3312 8.30715 19.2727 8.30715C17.2142 8.30715 15.5454 6.63839 15.5454 4.57987C15.5454 2.52136 17.2142 0.8526 19.2727 0.8526C21.3312 0.8526 23 2.52136 23 4.57987Z" fill="#F7CC33"/>
<path fill-rule="evenodd" clip-rule="evenodd" d="M19.2727 7.37533C20.8166 7.37533 22.0681 6.12376 22.0681 4.57987C22.0681 3.03599 20.8166 1.78442 19.2727 1.78442C17.7288 1.78442 16.4772 3.03599 16.4772 4.57987C16.4772 6.12376 17.7288 7.37533 19.2727 7.37533ZM19.2727 8.30715C21.3312 8.30715 23 6.63839 23 4.57987C23 2.52136 21.3312 0.8526 19.2727 0.8526C17.2142 0.8526 15.5454 2.52136 15.5454 4.57987C15.5454 6.63839 17.2142 8.30715 19.2727 8.30715Z" fill="white"/>
</svg>
