<svg width="36" height="36" viewBox="0 0 36 36" fill="none" xmlns="http://www.w3.org/2000/svg">
<path fill-rule="evenodd" clip-rule="evenodd" d="M18 36C27.9411 36 36 27.9411 36 18C36 8.05887 27.9411 0 18 0C8.05887 0 0 8.05887 0 18C0 27.9411 8.05887 36 18 36ZM20.7832 10.5C20.7832 8.84315 19.4401 7.5 17.7832 7.5C16.1264 7.5 14.7832 8.84315 14.7832 10.5V15H10.2832C8.62635 15 7.2832 16.3431 7.2832 18C7.2832 19.6569 8.62635 21 10.2832 21H14.7832V25.5C14.7832 27.1569 16.1264 28.5 17.7832 28.5C19.4401 28.5 20.7832 27.1569 20.7832 25.5V21H25.2832C26.9401 21 28.2832 19.6569 28.2832 18C28.2832 16.3431 26.9401 15 25.2832 15H20.7832V10.5Z" fill="white"/>
</svg>
