<svg width="20" height="21" viewBox="0 0 20 21" fill="none" xmlns="http://www.w3.org/2000/svg">
<path fill-rule="evenodd" clip-rule="evenodd" d="M10 8.4C11.1366 8.4 12.2267 7.9575 13.0305 7.16985C13.8342 6.3822 14.2857 5.31391 14.2857 4.2C14.2857 3.08609 13.8342 2.0178 13.0305 1.23015C12.2267 0.442499 11.1366 0 10 0C8.86336 0 7.77327 0.442499 6.96954 1.23015C6.16582 2.0178 5.71429 3.08609 5.71429 4.2C5.71429 5.31391 6.16582 6.3822 6.96954 7.16985C7.77327 7.9575 8.86336 8.4 10 8.4V8.4ZM0 21C-1.95685e-08 19.713 0.258658 18.4387 0.761205 17.2497C1.26375 16.0607 2.00035 14.9804 2.92893 14.0704C3.85752 13.1603 4.95991 12.4385 6.17317 11.946C7.38642 11.4535 8.68678 11.2 10 11.2C11.3132 11.2 12.6136 11.4535 13.8268 11.946C15.0401 12.4385 16.1425 13.1603 17.0711 14.0704C17.9997 14.9804 18.7362 16.0607 19.2388 17.2497C19.7413 18.4387 20 19.713 20 21H0Z" fill="white"/>
</svg>
