<svg width="32" height="32" viewBox="0 0 32 32" fill="none" xmlns="http://www.w3.org/2000/svg">
<path d="M4.00004 15.3333C2.52937 15.3333 1.33337 14.1373 1.33337 12.6667C1.33337 12.2987 1.63137 12 2.00004 12C2.36871 12 2.66671 12.2987 2.66671 12.6667C2.66671 13.402 3.26471 14 4.00004 14C4.73537 14 5.33337 13.402 5.33337 12.6667C5.33337 12.2987 5.63137 12 6.00004 12C6.36871 12 6.66671 12.2987 6.66671 12.6667C6.66671 14.1373 5.47071 15.3333 4.00004 15.3333Z" fill="white"/>
<path d="M24.6667 22.6667L19.3334 24L23.316 28.842C23.572 29.1533 23.9534 29.3333 24.3567 29.3333C25.2067 29.3333 25.8447 28.5553 25.678 27.722L24.6667 22.6667Z" fill="white"/>
<path d="M6.66667 22.6667L12 24L8.37401 28.8347C8.13867 29.1487 7.76934 29.3333 7.37667 29.3333C6.63934 29.3333 6.06334 28.6967 6.13667 27.9633L6.66667 22.6667Z" fill="white"/>
<path d="M29.3334 14.6667H27.3334L24.3 23.5393L29.2954 20.762C30.142 20.292 30.6667 19.3993 30.6667 18.4313V16C30.6667 15.2633 30.07 14.6667 29.3334 14.6667Z" fill="white"/>
<path d="M20 10C22 5.33334 26 5.33334 26 5.33334L25.3333 11.3333L20 10Z" fill="white"/>
<path d="M16 28C22.9956 28 28.6667 23.2244 28.6667 17.3333C28.6667 11.4423 22.9956 6.66666 16 6.66666C9.00443 6.66666 3.33337 11.4423 3.33337 17.3333C3.33337 23.2244 9.00443 28 16 28Z" fill="white"/>
<path d="M24.3334 14.6667C23.7814 14.6667 23.3334 15.1147 23.3334 15.6667C23.3334 16.2187 23.7814 16.6667 24.3334 16.6667C24.8854 16.6667 25.3334 16.2187 25.3334 15.6667C25.3334 15.1147 24.8854 14.6667 24.3334 14.6667Z" fill="white"/>
</svg>
