<svg width="322" height="188" viewBox="0 0 322 188" fill="none" xmlns="http://www.w3.org/2000/svg">
<path d="M9.60909 175.338V174.09H12.1051V182.838H10.7251V175.338H9.60909ZM14.0444 175.338V174.09H16.5404V182.838H15.1604V175.338H14.0444ZM27.2249 181.134H23.7329L23.1329 182.838H21.7049L24.6929 174.486H26.2769L29.2649 182.838H27.8249L27.2249 181.134ZM26.8409 180.018L25.4849 176.142L24.1169 180.018H26.8409ZM32.1721 177.198C32.4041 176.894 32.7201 176.638 33.1201 176.43C33.5201 176.222 33.9721 176.118 34.4761 176.118C35.0521 176.118 35.5761 176.262 36.0481 176.55C36.5281 176.83 36.9041 177.226 37.1761 177.738C37.4481 178.25 37.5841 178.838 37.5841 179.502C37.5841 180.166 37.4481 180.762 37.1761 181.29C36.9041 181.81 36.5281 182.218 36.0481 182.514C35.5761 182.802 35.0521 182.946 34.4761 182.946C33.9721 182.946 33.5241 182.846 33.1321 182.646C32.7401 182.438 32.4201 182.182 32.1721 181.878V185.982H30.8041V176.226H32.1721V177.198ZM36.1921 179.502C36.1921 179.046 36.0961 178.654 35.9041 178.326C35.7201 177.99 35.4721 177.738 35.1601 177.57C34.8561 177.394 34.5281 177.306 34.1761 177.306C33.8321 177.306 33.5041 177.394 33.1921 177.57C32.8881 177.746 32.6401 178.002 32.4481 178.338C32.2641 178.674 32.1721 179.07 32.1721 179.526C32.1721 179.982 32.2641 180.382 32.4481 180.726C32.6401 181.062 32.8881 181.318 33.1921 181.494C33.5041 181.67 33.8321 181.758 34.1761 181.758C34.5281 181.758 34.8561 181.67 35.1601 181.494C35.4721 181.31 35.7201 181.046 35.9041 180.702C36.0961 180.358 36.1921 179.958 36.1921 179.502ZM40.5449 177.186C40.7449 176.85 41.0089 176.59 41.3369 176.406C41.6729 176.214 42.0689 176.118 42.5249 176.118V177.534H42.1769C41.6409 177.534 41.2329 177.67 40.9529 177.942C40.6809 178.214 40.5449 178.686 40.5449 179.358V182.838H39.1769V176.226H40.5449V177.186Z" fill="#8991AC"/>
<path d="M74.1623 175.338V174.09H76.6583V182.838H75.2783V175.338H74.1623ZM79.5336 180.978C80.3016 180.314 80.9056 179.77 81.3456 179.346C81.7936 178.914 82.1656 178.466 82.4616 178.002C82.7576 177.538 82.9056 177.074 82.9056 176.61C82.9056 176.13 82.7896 175.754 82.5576 175.482C82.3336 175.21 81.9776 175.074 81.4896 175.074C81.0176 175.074 80.6496 175.226 80.3856 175.53C80.1296 175.826 79.9936 176.226 79.9776 176.73H78.6576C78.6816 175.818 78.9536 175.122 79.4736 174.642C80.0016 174.154 80.6696 173.91 81.4776 173.91C82.3496 173.91 83.0296 174.15 83.5176 174.63C84.0136 175.11 84.2616 175.75 84.2616 176.55C84.2616 177.126 84.1136 177.682 83.8176 178.218C83.5296 178.746 83.1816 179.222 82.7736 179.646C82.3736 180.062 81.8616 180.546 81.2376 181.098L80.6976 181.578H84.5016V182.718H78.6696V181.722L79.5336 180.978ZM94.5086 181.134H91.0166L90.4166 182.838H88.9886L91.9766 174.486H93.5606L96.5486 182.838H95.1086L94.5086 181.134ZM94.1246 180.018L92.7686 176.142L91.4006 180.018H94.1246ZM99.4558 177.198C99.6878 176.894 100.004 176.638 100.404 176.43C100.804 176.222 101.256 176.118 101.76 176.118C102.336 176.118 102.86 176.262 103.332 176.55C103.812 176.83 104.188 177.226 104.46 177.738C104.732 178.25 104.868 178.838 104.868 179.502C104.868 180.166 104.732 180.762 104.46 181.29C104.188 181.81 103.812 182.218 103.332 182.514C102.86 182.802 102.336 182.946 101.76 182.946C101.256 182.946 100.808 182.846 100.416 182.646C100.024 182.438 99.7038 182.182 99.4558 181.878V185.982H98.0878V176.226H99.4558V177.198ZM103.476 179.502C103.476 179.046 103.38 178.654 103.188 178.326C103.004 177.99 102.756 177.738 102.444 177.57C102.14 177.394 101.812 177.306 101.46 177.306C101.116 177.306 100.788 177.394 100.476 177.57C100.172 177.746 99.9238 178.002 99.7318 178.338C99.5478 178.674 99.4558 179.07 99.4558 179.526C99.4558 179.982 99.5478 180.382 99.7318 180.726C99.9238 181.062 100.172 181.318 100.476 181.494C100.788 181.67 101.116 181.758 101.46 181.758C101.812 181.758 102.14 181.67 102.444 181.494C102.756 181.31 103.004 181.046 103.188 180.702C103.38 180.358 103.476 179.958 103.476 179.502ZM107.829 177.186C108.029 176.85 108.293 176.59 108.621 176.406C108.957 176.214 109.353 176.118 109.809 176.118V177.534H109.461C108.925 177.534 108.517 177.67 108.237 177.942C107.965 178.214 107.829 178.686 107.829 179.358V182.838H106.461V176.226H107.829V177.186Z" fill="#8991AC"/>
<path d="M141.943 175.338V174.09H144.439V182.838H143.059V175.338H141.943ZM146.534 176.25C146.582 175.506 146.866 174.926 147.386 174.51C147.914 174.094 148.586 173.886 149.402 173.886C149.962 173.886 150.446 173.986 150.854 174.186C151.262 174.386 151.57 174.658 151.778 175.002C151.986 175.346 152.09 175.734 152.09 176.166C152.09 176.662 151.958 177.086 151.694 177.438C151.43 177.79 151.114 178.026 150.746 178.146V178.194C151.218 178.338 151.586 178.602 151.85 178.986C152.114 179.362 152.246 179.846 152.246 180.438C152.246 180.91 152.138 181.33 151.922 181.698C151.706 182.066 151.386 182.358 150.962 182.574C150.538 182.782 150.03 182.886 149.438 182.886C148.574 182.886 147.862 182.666 147.302 182.226C146.75 181.778 146.454 181.138 146.414 180.306H147.734C147.766 180.73 147.93 181.078 148.226 181.35C148.522 181.614 148.922 181.746 149.426 181.746C149.914 181.746 150.29 181.614 150.554 181.35C150.818 181.078 150.95 180.73 150.95 180.306C150.95 179.746 150.77 179.35 150.41 179.118C150.058 178.878 149.514 178.758 148.778 178.758H148.466V177.63H148.79C149.438 177.622 149.93 177.514 150.266 177.306C150.61 177.098 150.782 176.77 150.782 176.322C150.782 175.938 150.658 175.634 150.41 175.41C150.162 175.178 149.81 175.062 149.354 175.062C148.906 175.062 148.558 175.178 148.31 175.41C148.062 175.634 147.914 175.914 147.866 176.25H146.534ZM162.489 181.134H158.997L158.397 182.838H156.969L159.957 174.486H161.541L164.529 182.838H163.089L162.489 181.134ZM162.105 180.018L160.749 176.142L159.381 180.018H162.105ZM167.436 177.198C167.668 176.894 167.984 176.638 168.384 176.43C168.784 176.222 169.236 176.118 169.74 176.118C170.316 176.118 170.84 176.262 171.312 176.55C171.792 176.83 172.168 177.226 172.44 177.738C172.712 178.25 172.848 178.838 172.848 179.502C172.848 180.166 172.712 180.762 172.44 181.29C172.168 181.81 171.792 182.218 171.312 182.514C170.84 182.802 170.316 182.946 169.74 182.946C169.236 182.946 168.788 182.846 168.396 182.646C168.004 182.438 167.684 182.182 167.436 181.878V185.982H166.068V176.226H167.436V177.198ZM171.456 179.502C171.456 179.046 171.36 178.654 171.168 178.326C170.984 177.99 170.736 177.738 170.424 177.57C170.12 177.394 169.792 177.306 169.44 177.306C169.096 177.306 168.768 177.394 168.456 177.57C168.152 177.746 167.904 178.002 167.712 178.338C167.528 178.674 167.436 179.07 167.436 179.526C167.436 179.982 167.528 180.382 167.712 180.726C167.904 181.062 168.152 181.318 168.456 181.494C168.768 181.67 169.096 181.758 169.44 181.758C169.792 181.758 170.12 181.67 170.424 181.494C170.736 181.31 170.984 181.046 171.168 180.702C171.36 180.358 171.456 179.958 171.456 179.502ZM175.809 177.186C176.009 176.85 176.273 176.59 176.601 176.406C176.937 176.214 177.333 176.118 177.789 176.118V177.534H177.441C176.905 177.534 176.497 177.67 176.217 177.942C175.945 178.214 175.809 178.686 175.809 179.358V182.838H174.441V176.226H175.809V177.186Z" fill="#8991AC"/>
<path d="M209.724 175.338V174.09H212.22V182.838H210.84V175.338H209.724ZM214.171 181.014V179.982L218.203 174.198H219.859V179.826H220.975V181.014H219.859V182.838H218.515V181.014H214.171ZM218.575 175.59L215.743 179.826H218.575V175.59ZM230.914 181.134H227.422L226.822 182.838H225.394L228.382 174.486H229.966L232.954 182.838H231.514L230.914 181.134ZM230.53 180.018L229.174 176.142L227.806 180.018H230.53ZM235.861 177.198C236.093 176.894 236.409 176.638 236.809 176.43C237.209 176.222 237.661 176.118 238.165 176.118C238.741 176.118 239.265 176.262 239.737 176.55C240.217 176.83 240.593 177.226 240.865 177.738C241.137 178.25 241.273 178.838 241.273 179.502C241.273 180.166 241.137 180.762 240.865 181.29C240.593 181.81 240.217 182.218 239.737 182.514C239.265 182.802 238.741 182.946 238.165 182.946C237.661 182.946 237.213 182.846 236.821 182.646C236.429 182.438 236.109 182.182 235.861 181.878V185.982H234.493V176.226H235.861V177.198ZM239.881 179.502C239.881 179.046 239.785 178.654 239.593 178.326C239.409 177.99 239.161 177.738 238.849 177.57C238.545 177.394 238.217 177.306 237.865 177.306C237.521 177.306 237.193 177.394 236.881 177.57C236.577 177.746 236.329 178.002 236.137 178.338C235.953 178.674 235.861 179.07 235.861 179.526C235.861 179.982 235.953 180.382 236.137 180.726C236.329 181.062 236.577 181.318 236.881 181.494C237.193 181.67 237.521 181.758 237.865 181.758C238.217 181.758 238.545 181.67 238.849 181.494C239.161 181.31 239.409 181.046 239.593 180.702C239.785 180.358 239.881 179.958 239.881 179.502ZM244.234 177.186C244.434 176.85 244.698 176.59 245.026 176.406C245.362 176.214 245.758 176.118 246.214 176.118V177.534H245.866C245.33 177.534 244.922 177.67 244.642 177.942C244.37 178.214 244.234 178.686 244.234 179.358V182.838H242.866V176.226H244.234V177.186Z" fill="#8991AC"/>
<path d="M278.58 175.338V174.09H281.076V182.838H279.696V175.338H278.58ZM288.836 175.266H284.816V177.654C284.984 177.43 285.232 177.242 285.56 177.09C285.896 176.938 286.252 176.862 286.628 176.862C287.3 176.862 287.844 177.006 288.26 177.294C288.684 177.582 288.984 177.946 289.16 178.386C289.344 178.826 289.436 179.29 289.436 179.778C289.436 180.37 289.32 180.898 289.088 181.362C288.864 181.818 288.524 182.178 288.068 182.442C287.62 182.706 287.068 182.838 286.412 182.838C285.54 182.838 284.84 182.622 284.312 182.19C283.784 181.758 283.468 181.186 283.364 180.474H284.696C284.784 180.85 284.98 181.15 285.284 181.374C285.588 181.59 285.968 181.698 286.424 181.698C286.992 181.698 287.416 181.526 287.696 181.182C287.984 180.838 288.128 180.382 288.128 179.814C288.128 179.238 287.984 178.798 287.696 178.494C287.408 178.182 286.984 178.026 286.424 178.026C286.032 178.026 285.7 178.126 285.428 178.326C285.164 178.518 284.972 178.782 284.852 179.118H283.556V174.066H288.836V175.266ZM299.665 181.134H296.173L295.573 182.838H294.145L297.133 174.486H298.717L301.705 182.838H300.265L299.665 181.134ZM299.281 180.018L297.925 176.142L296.557 180.018H299.281ZM304.612 177.198C304.844 176.894 305.16 176.638 305.56 176.43C305.96 176.222 306.412 176.118 306.916 176.118C307.492 176.118 308.016 176.262 308.488 176.55C308.968 176.83 309.344 177.226 309.616 177.738C309.888 178.25 310.024 178.838 310.024 179.502C310.024 180.166 309.888 180.762 309.616 181.29C309.344 181.81 308.968 182.218 308.488 182.514C308.016 182.802 307.492 182.946 306.916 182.946C306.412 182.946 305.964 182.846 305.572 182.646C305.18 182.438 304.86 182.182 304.612 181.878V185.982H303.244V176.226H304.612V177.198ZM308.632 179.502C308.632 179.046 308.536 178.654 308.344 178.326C308.16 177.99 307.912 177.738 307.6 177.57C307.296 177.394 306.968 177.306 306.616 177.306C306.272 177.306 305.944 177.394 305.632 177.57C305.328 177.746 305.08 178.002 304.888 178.338C304.704 178.674 304.612 179.07 304.612 179.526C304.612 179.982 304.704 180.382 304.888 180.726C305.08 181.062 305.328 181.318 305.632 181.494C305.944 181.67 306.272 181.758 306.616 181.758C306.968 181.758 307.296 181.67 307.6 181.494C307.912 181.31 308.16 181.046 308.344 180.702C308.536 180.358 308.632 179.958 308.632 179.502ZM312.985 177.186C313.185 176.85 313.449 176.59 313.777 176.406C314.113 176.214 314.509 176.118 314.965 176.118V177.534H314.617C314.081 177.534 313.673 177.67 313.393 177.942C313.121 178.214 312.985 178.686 312.985 179.358V182.838H311.617V176.226H312.985V177.186Z" fill="#8991AC"/>
<path d="M94.8955 25.8674C80.3272 75.8139 74.5802 128.704 56.3599 106.426C46.1872 93.9882 37.2197 111.814 24.6695 117.12C12.3751 122.317 1 121.423 1 121.423V146.169H320V96.7592C303.074 94.4926 309.562 110.641 297.1 110.641C270.069 110.641 284.551 5.33449 265.956 2.23689C247.815 -0.785042 240.362 25.8675 222.721 38.7569C194.054 59.7021 185.089 54.659 168.677 67.221C140.239 88.9873 148.469 142.409 135.311 96.7592C122.152 51.1092 109.464 -24.0791 94.8955 25.8674Z" fill="url(#paint0_linear_37_438)"/>
<path d="M1.53796 121.423C44.0354 121.423 40.5697 89.67 56.3599 106.426C76.0977 127.372 80.3272 75.8139 94.8955 25.8674C109.464 -24.0791 122.152 51.1092 135.311 96.7592C148.469 142.409 140.24 88.9873 168.677 67.221C185.089 54.659 194.054 59.7021 222.721 38.7569C240.362 25.8675 247.815 -0.785042 265.956 2.23689C284.551 5.33449 270.069 110.641 297.1 110.641C309.562 110.641 303.074 94.4926 320 96.7592" stroke="#21A3FB" stroke-width="3" stroke-linecap="round"/>
<defs>
<linearGradient id="paint0_linear_37_438" x1="85.9949" y1="17.0624" x2="91.9123" y2="146.169" gradientUnits="userSpaceOnUse">
<stop stop-color="#9FD4F9"/>
<stop offset="1" stop-color="#57B5F4" stop-opacity="0"/>
</linearGradient>
</defs>
</svg>
